<svg width="64" height="56" viewBox="0 0 64 56" fill="none" xmlns="http://www.w3.org/2000/svg">
<rect x="0.703125" y="0.345703" width="62.4733" height="55.1235" rx="3.91667" fill="#38BDF8"/>
<path d="M51 7C52.1046 7 53 7.89543 53 9V43.6977C53 44.8022 52.1046 45.6977 51 45.6977H42.838C42.7067 45.6977 42.5758 45.7106 42.4471 45.7362L31.5547 47.907L28.3861 48.5305C27.1503 48.7737 26 47.8277 26 46.5681V23.7816C26 22.8272 26.6745 22.0057 27.6107 21.8199L40.8869 19.1852C40.9526 19.1722 41 19.1145 41 19.0475C41 18.9699 40.9371 18.907 40.8595 18.907H25C23.8954 18.907 23 19.8024 23 20.907V43.6977C23 44.8022 22.1046 45.6977 21 45.6977H13C11.8954 45.6977 11 44.8022 11 43.6977V9C11 7.89543 11.8954 7 13 7H51ZM30.6085 24.2836C29.6733 24.4703 29 25.2912 29 26.2449V42.9334C29 44.1952 30.1541 45.1417 31.3915 44.8947L39.3915 43.2978C40.3267 43.1111 41 42.2902 41 41.3365V24.648C41 23.3862 39.8459 22.4397 38.6085 22.6867L30.6085 24.2836ZM48 42.7209C49.1046 42.7209 50 41.8255 50 40.7209V11.9767C50 10.8722 49.1046 9.97674 48 9.97674H16C14.8954 9.97674 14 10.8722 14 11.9767V40.7209C14 41.8255 14.8954 42.7209 16 42.7209H18C19.1046 42.7209 20 41.8255 20 40.7209V17.9302C20 16.8257 20.8954 15.9302 22 15.9302H42C43.1046 15.9302 44 16.8257 44 17.9302V40.7209C44 41.8255 44.8954 42.7209 46 42.7209H48Z" fill="white"/>
</svg>
