<svg width="256" height="49" viewBox="0 0 256 49" fill="none" xmlns="http://www.w3.org/2000/svg">
<rect y="19" width="256" height="11" fill="#FF5C00"/>
<path d="M2.772 36V10.62H7.38V21.852H7.452L18.648 10.62H24.264L10.872 23.868L10.908 21.78L24.876 36H19.188L7.452 24.264H7.38V36H2.772ZM26.6783 36V10.62H43.5623V14.292H31.1063V21.276H42.7703V24.948H31.1063V32.328H43.5623V36H26.6783ZM54.1013 36V22.932L55.0733 25.704L44.3452 10.62H49.7093L56.9813 20.952H55.9733L63.2812 10.62H68.4293L57.7733 25.704L58.7093 22.932V36H54.1013ZM88.7583 36.36C87.4383 36.36 86.1663 36.24 84.9423 36C83.7423 35.784 82.6263 35.46 81.5943 35.028C80.5863 34.596 79.6863 34.08 78.8943 33.48L80.2983 29.844C81.0903 30.396 81.9183 30.876 82.7823 31.284C83.6703 31.668 84.6063 31.968 85.5903 32.184C86.5983 32.376 87.6543 32.472 88.7583 32.472C90.6543 32.472 92.0343 32.16 92.8983 31.536C93.7623 30.888 94.1943 30.06 94.1943 29.052C94.1943 28.5 94.0623 28.032 93.7983 27.648C93.5343 27.24 93.1023 26.892 92.5023 26.604C91.9023 26.316 91.1103 26.076 90.1263 25.884L86.1663 25.056C83.8863 24.576 82.1823 23.772 81.0543 22.644C79.9503 21.492 79.3983 19.98 79.3983 18.108C79.3983 16.524 79.8183 15.144 80.6583 13.968C81.4983 12.792 82.6623 11.88 84.1503 11.232C85.6383 10.584 87.3543 10.26 89.2983 10.26C90.4503 10.26 91.5543 10.38 92.6103 10.62C93.6903 10.836 94.6743 11.172 95.5623 11.628C96.4743 12.06 97.2663 12.588 97.9383 13.212L96.5343 16.668C95.5263 15.828 94.4223 15.204 93.2223 14.796C92.0223 14.364 90.7023 14.148 89.2623 14.148C88.1583 14.148 87.2103 14.304 86.4183 14.616C85.6263 14.928 85.0143 15.372 84.5823 15.948C84.1743 16.5 83.9703 17.16 83.9703 17.928C83.9703 18.792 84.2583 19.488 84.8343 20.016C85.4103 20.52 86.3943 20.916 87.7863 21.204L91.7103 22.032C94.0863 22.536 95.8503 23.328 97.0023 24.408C98.1783 25.488 98.7663 26.928 98.7663 28.728C98.7663 30.24 98.3583 31.572 97.5423 32.724C96.7263 33.876 95.5623 34.776 94.0503 35.424C92.5623 36.048 90.7983 36.36 88.7583 36.36ZM108.314 36V14.472H99.6019V10.62H121.634V14.472H112.922V36H108.314ZM134.382 36.36C132.534 36.36 130.854 36.06 129.342 35.46C127.854 34.836 126.57 33.948 125.49 32.796C124.434 31.644 123.618 30.264 123.042 28.656C122.466 27.048 122.178 25.26 122.178 23.292C122.178 21.3 122.466 19.512 123.042 17.928C123.618 16.32 124.434 14.952 125.49 13.824C126.57 12.672 127.854 11.796 129.342 11.196C130.854 10.572 132.534 10.26 134.382 10.26C136.23 10.26 137.898 10.572 139.386 11.196C140.898 11.796 142.182 12.66 143.238 13.788C144.318 14.916 145.146 16.284 145.722 17.892C146.298 19.476 146.586 21.264 146.586 23.256C146.586 25.248 146.298 27.048 145.722 28.656C145.146 30.264 144.318 31.644 143.238 32.796C142.182 33.948 140.898 34.836 139.386 35.46C137.898 36.06 136.23 36.36 134.382 36.36ZM134.382 32.4C135.942 32.4 137.262 32.04 138.342 31.32C139.446 30.6 140.286 29.556 140.862 28.188C141.462 26.82 141.762 25.188 141.762 23.292C141.762 21.372 141.474 19.74 140.898 18.396C140.322 17.028 139.482 15.996 138.378 15.3C137.274 14.58 135.942 14.22 134.382 14.22C132.846 14.22 131.526 14.58 130.422 15.3C129.318 15.996 128.466 17.028 127.866 18.396C127.29 19.74 127.002 21.372 127.002 23.292C127.002 25.188 127.29 26.82 127.866 28.188C128.466 29.556 129.318 30.6 130.422 31.32C131.526 32.04 132.846 32.4 134.382 32.4ZM151.272 36V10.62H162.288C165.072 10.62 167.22 11.292 168.732 12.636C170.244 13.956 171 15.816 171 18.216C171 19.776 170.652 21.12 169.956 22.248C169.284 23.376 168.3 24.24 167.004 24.84C165.708 25.44 164.136 25.74 162.288 25.74L162.612 25.2H163.8C164.784 25.2 165.636 25.44 166.356 25.92C167.1 26.4 167.748 27.156 168.3 28.188L172.548 36H167.472L163.08 27.9C162.792 27.372 162.468 26.964 162.108 26.676C161.748 26.364 161.34 26.148 160.884 26.028C160.428 25.908 159.9 25.848 159.3 25.848H155.88V36H151.272ZM155.88 22.428H161.496C163.152 22.428 164.4 22.092 165.24 21.42C166.104 20.724 166.536 19.692 166.536 18.324C166.536 16.98 166.104 15.972 165.24 15.3C164.4 14.604 163.152 14.256 161.496 14.256H155.88V22.428ZM172.759 36L184.243 10.62H188.023L199.507 36H194.827L191.767 28.872L193.711 30.132H178.519L180.463 28.872L177.439 36H172.759ZM186.079 15.624L181.039 27.612L180.103 26.46H192.127L191.227 27.612L186.151 15.624H186.079ZM213.96 36.36C211.152 36.36 208.776 35.832 206.832 34.776C204.912 33.72 203.448 32.22 202.44 30.276C201.432 28.332 200.928 26.028 200.928 23.364C200.928 20.676 201.444 18.36 202.476 16.416C203.508 14.448 204.996 12.936 206.94 11.88C208.884 10.8 211.212 10.26 213.924 10.26C215.124 10.26 216.264 10.38 217.344 10.62C218.448 10.836 219.468 11.16 220.404 11.592C221.34 12.024 222.144 12.552 222.816 13.176L221.268 16.776C220.14 15.888 218.988 15.252 217.812 14.868C216.636 14.484 215.34 14.292 213.924 14.292C211.236 14.292 209.196 15.072 207.804 16.632C206.436 18.192 205.752 20.436 205.752 23.364C205.752 26.316 206.46 28.56 207.876 30.096C209.292 31.632 211.392 32.4 214.176 32.4C215.136 32.4 216.108 32.304 217.092 32.112C218.076 31.92 219.036 31.656 219.972 31.32L219.072 33.372V25.704H213.24V22.284H222.924V34.488C222.156 34.872 221.268 35.208 220.26 35.496C219.276 35.76 218.244 35.964 217.164 36.108C216.084 36.276 215.016 36.36 213.96 36.36ZM228.264 36V10.62H245.148V14.292H232.692V21.276H244.356V24.948H232.692V32.328H245.148V36H228.264Z" fill="#20252A"/>
</svg>
